PathFileType	3	(X/Y/Z)	F:\ViconData\AntennenMessung\Messung1\Session1\ID09.trc
DataRate	CameraRate	NumFrames	NumMarkers	Units	OrigDataRate	OrigDataStartFrame	OrigNumFrames
120.0	120.0	5	70	mm	120.0	812	1082	
Frame#	Time	Ashort			Along			Atop			A4			Bshort			Blong			Btop			B4			Cshort			Clong			Ctop			C4			Dshort			Dlong			Dtop			D4			Eshort			Elong			Etop			E4			Fshort			Flong			Ftop			F4			Gshort			Glong			Gtop			G4			Hshort			Hlong			Htop			H4			I1			I2			I3			I4			I5			WandAshort			WandAlong			WandAtop			WandA4			WandA15			WandBshort			WandB4			WandB5			WandBtop			WandBlong			WandCshort			WandClong			WandCtop			WandC4			WandC5			Acenter			Aantenna			Bcenter			Bantenna			Ccenter			Cantenna			Dcenter			Dantenna			Ecenter			Eantenna			Fcenter			Fantenna			Gcenter			Gantenna			Hcenter			Hantenna			Icenter			Iantenna			
		X1	Y1	Z1	X2	Y2	Z2	X3	Y3	Z3	X4	Y4	Z4	X5	Y5	Z5	X6	Y6	Z6	X7	Y7	Z7	X8	Y8	Z8	X9	Y9	Z9	X10	Y10	Z10	X11	Y11	Z11	X12	Y12	Z12	X13	Y13	Z13	X14	Y14	Z14	X15	Y15	Z15	X16	Y16	Z16	X17	Y17	Z17	X18	Y18	Z18	X19	Y19	Z19	X20	Y20	Z20	X21	Y21	Z21	X22	Y22	Z22	X23	Y23	Z23	X24	Y24	Z24	X25	Y25	Z25	X26	Y26	Z26	X27	Y27	Z27	X28	Y28	Z28	X29	Y29	Z29	X30	Y30	Z30	X31	Y31	Z31	X32	Y32	Z32	X33	Y33	Z33	X34	Y34	Z34	X35	Y35	Z35	X36	Y36	Z36	X37	Y37	Z37	X38	Y38	Z38	X39	Y39	Z39	X40	Y40	Z40	X41	Y41	Z41	X42	Y42	Z42	X43	Y43	Z43	X44	Y44	Z44	X45	Y45	Z45	X46	Y46	Z46	X47	Y47	Z47	X48	Y48	Z48	X49	Y49	Z49	X50	Y50	Z50	X51	Y51	Z51	X52	Y52	Z52	X53	Y53	Z53	X54	Y54	Z54	X55	Y55	Z55	X56	Y56	Z56	X57	Y57	Z57	X58	Y58	Z58	X59	Y59	Z59	X60	Y60	Z60	X61	Y61	Z61	X62	Y62	Z62	X63	Y63	Z63	X64	Y64	Z64	X65	Y65	Z65	X66	Y66	Z66	X67	Y67	Z67	X68	Y68	Z68	X69	Y69	Z69	X70	Y70	Z70	
812	6.7583333	-1038.2119	214.45743	-1644.2365	-1109.3033	203.94772	-1599.3723	-1063.5864	172.32291	-1625.6064	-1054.1948	262.2142	-1634.9049	-1352.8191	235.17482	1004.1325	-1281.3237	227.14439	1052.7192	-1322.981	193.95358	1020.9184	-1285.1008	287.93866	1052.5084	814.19403	187.64912	1209.6494	892.21124	178.56462	1179.2158	844.31226	145.6743	1198.2626	860.63226	293.05533	1167.3711	1115.7386	209.5937	-1401.5725	1056.1443	194.13576	-1460.1675	1095.0431	162.37143	-1423.8278	1069.8546	238.81694	-1425.8317	-1204.6116	1686.0321	-1563.0773	-1129.1842	1688.4261	-1606.5387	-1173.124	1724.4297	-1581.967	-1134.042	1581.0514	-1603.7886	-1239.771	1699.3832	1119.5061	-1309.2502	1698.6401	1071.8751	-1270.4917	1736.4019	1096.9197	-1245.7023	1593.0031	1110.7439	988.88568	1664.2461	1162.3193	955.96515	1702.2455	1181.209	922.76147	1662.1628	1215.1353	939.7865	1659.4436	1159.9166	999.11768	1668.5156	-1579.3872	1058.9008	1670.1934	-1518.5981	1025.011	1708.0449	-1551.0725	1059.2677	1672.2024	-1585.5022	410.96457	1606.3599	-23.995689	411.42487	1608.0536	-108.08759	413.44177	1644.0388	-60.885956	444.17953	1605.0996	-61.079765	363.64032	1610.1663	-61.249199																																														-1068.745	209.9436	-1624.9675	-1074.0424	248.5766	-1624.3118	-1321.7053	231.68008	1025.2766	-1320.3961	270.40057	1029.7499	848.03357	183.70877	1196.449	851.82697	222.4798	1194.6002	1088.7838	202.60202	-1428.0751	1082.8207	240.93042	-1432.1216	-1171.9109	1687.0699	-1581.9193	-1170.645	1648.0905	-1581.8698	-1270.9318	1699.0498	1098.144	-1271.3907	1660.0734	1099.4218	953.55902	1705.0226	1182.5894	972.92993	1731.9805	1162.119	1026.5383	1669.285	-1551.505	1028.074	1630.3177	-1551.9398	411.17062	1607.118	-61.642017	408.77661	1568.1997	-62.438988
813	6.7666667	-1038.2197	214.502	-1644.1561	-1109.3066	203.97136	-1599.3979	-1063.5427	172.80411	-1625.8632	-1054.1703	262.22424	-1634.9092	-1352.8912	235.10158	1004.1194	-1281.3048	227.10172	1052.6523	-1322.9641	193.96777	1020.9104	-1284.7262	288.10135	1052.3066	814.22894	187.45436	1209.5516	892.66077	179.31271	1178.639	844.30255	145.66528	1198.343	860.60858	293.04346	1167.4141	1115.7506	209.60796	-1401.5681	1056.1593	194.12932	-1460.1868	1095.0559	162.589	-1423.9928	1069.8673	238.80095	-1425.811	-1204.5592	1685.9729	-1563.2202	-1129.1562	1688.3333	-1606.2231	-1173.1444	1724.4218	-1581.944	-1133.7717	1581.043	-1603.6508	-1239.7867	1699.4073	1119.5186	-1309.2534	1698.6534	1071.8706	-1270.5071	1736.4211	1096.9292	-1245.678	1592.9542	1110.7234	988.86615	1664.2611	1162.3247	955.89319	1702.3586	1181.1826	922.60107	1662.0704	1214.9938	939.75891	1659.4103	1159.9772	999.13245	1668.5004	-1579.3547	1058.8912	1670.1798	-1518.6018	1025.0111	1708.0557	-1551.0851	1059.2609	1672.2047	-1585.4938	410.96628	1606.3683	-23.991392	411.42468	1608.0588	-108.09741	413.43808	1644.0475	-60.896626	444.18942	1605.1161	-61.07716	363.60083	1610.1835	-61.279854																																														-1068.5486	210.00912	-1625.0601	-1073.7479	248.65201	-1624.2261	-1321.7065	231.61665	1025.2614	-1320.4133	270.33746	1029.7365	847.52679	183.99785	1196.4279	850.79163	222.81255	1194.4885	1088.7413	202.59241	-1428.1365	1082.6919	240.91533	-1432.1061	-1171.9128	1686.9948	-1581.8386	-1170.6301	1648.0161	-1581.7289	-1270.9393	1699.0691	1098.1505	-1271.3905	1660.0927	1099.4248	953.60931	1704.9973	1182.4888	973.07202	1731.941	1162.0867	1026.5271	1669.2703	-1551.5043	1028.0503	1630.3024	-1551.9253	411.17154	1607.1251	-61.651066	408.78241	1568.2065	-62.446308
814	6.775	-1038.2206	214.56569	-1644.1777	-1109.3494	204.0341	-1599.4117	-1063.587	172.80017	-1625.8237	-1054.1781	262.22028	-1634.9142	-1352.9042	235.06612	1004.1782	-1281.2938	227.12199	1052.6494	-1322.9628	194.03903	1020.8874	-1284.6621	288.16092	1052.2693	814.26526	187.4193	1209.6276	892.61694	179.28873	1178.6729	844.25543	145.67625	1198.2654	860.57684	292.91104	1167.3164	1115.75	209.62611	-1401.5679	1056.1556	194.14775	-1460.1958	1095.0251	162.5405	-1424.0098	1069.8424	238.72775	-1425.7738	-1204.5869	1686.0457	-1563.0806	-1129.1406	1688.2932	-1606.0465	-1173.1377	1724.425	-1581.9546	-1133.7816	1581.0248	-1603.6172	-1239.7668	1699.3545	1119.5054	-1309.2954	1698.7194	1071.9054	-1270.5164	1736.4221	1096.9326	-1245.6703	1592.9438	1110.7212	988.86328	1664.2439	1162.3027	955.77344	1702.2589	1181.098	922.10931	1662.3429	1214.9989	939.82648	1659.4089	1159.9194	999.12488	1668.4984	-1579.3606	1058.8922	1670.1886	-1518.5909	1025.0076	1708.0369	-1551.0745	1059.2729	1672.1647	-1585.3856	410.97198	1606.3715	-23.989004	411.42758	1608.0558	-108.10248	413.43903	1644.0554	-60.90617	444.17728	1605.1122	-61.076401	363.5383	1610.2266	-61.316261																																														-1068.6162	210.06519	-1625.0476	-1073.8312	248.70656	-1624.2429	-1321.7555	231.61063	1025.2617	-1320.5117	270.32922	1029.7698	847.52631	183.96777	1196.4869	850.84204	222.78473	1194.6841	1088.7108	202.60327	-1428.1685	1082.6707	240.92677	-1432.1465	-1171.8817	1687.0198	-1581.7058	-1170.5729	1648.0427	-1581.4467	-1270.9932	1699.0692	1098.1274	-1271.4907	1660.0924	1099.3741	953.10065	1705.3296	1182.616	972.56238	1732.324	1162.2804	1026.531	1669.2734	-1551.4948	1028.0625	1630.3057	-1551.9171	411.17603	1607.1256	-61.657974	408.79111	1568.2068	-62.450279
815	6.7833333	-1038.2202	214.51465	-1644.1788	-1109.3198	203.92328	-1599.3931	-1063.5553	172.79012	-1625.8665	-1054.1759	262.23032	-1634.913	-1352.7834	235.12923	1004.1045	-1281.3622	227.14487	1052.6934	-1322.9663	193.95953	1020.952	-1284.651	288.16492	1052.2417	814.18396	187.44879	1209.5447	892.64551	179.22844	1178.6678	844.23267	145.76537	1198.1797	860.80493	292.79901	1168.1094	1115.795	209.89595	-1401.7192	1056.137	194.17776	-1460.2054	1094.9492	162.2661	-1423.884	1069.8475	238.79037	-1425.803	-1204.603	1686.0341	-1563.0813	-1129.1377	1688.3383	-1606.2382	-1173.1428	1724.4011	-1581.9506	-1134.0387	1581.0582	-1603.799	-1239.7354	1699.3282	1119.4852	-1308.4244	1699.8107	1069.4507	-1270.4539	1736.3407	1096.9119	-1245.6617	1592.8973	1110.7152	988.91705	1664.2837	1162.3372	955.91754	1702.4333	1181.2423	922.84473	1662.0752	1215.0116	939.77692	1659.4347	1159.9332	999.12982	1668.5046	-1579.3755	1058.8962	1670.1849	-1518.5962	1025.002	1708.0466	-1551.0898	1059.2743	1672.1631	-1585.3895	410.9809	1606.3739	-23.987753	411.43365	1608.0544	-108.08858	413.43903	1644.0455	-60.893951	444.17023	1605.0988	-61.078461	363.51447	1610.2251	-61.331341																																														-1068.5842	209.99144	-1625.0525	-1073.8076	248.63083	-1624.207	-1321.6843	231.65259	1025.2615	-1320.3673	270.37805	1029.6892	847.54041	183.95404	1196.418	850.90216	222.76761	1194.6273	1088.647	202.74324	-1428.3337	1082.6823	241.0536	-1432.5454	-1171.9045	1687.0325	-1581.7806	-1170.6132	1648.0542	-1581.6035	-1270.7166	1699.5458	1096.9178	-1270.995	1660.5468	1096.9243	953.75494	1704.9331	1182.4812	973.18213	1731.8696	1162.0358	1026.5251	1669.2748	-1551.5157	1028.056	1630.3073	-1551.9437	411.18362	1607.1262	-61.643829	408.80603	1568.2068	-62.434334
816	6.7916667	-1038.2218	214.52621	-1644.1774	-1109.3151	203.9704	-1599.4032	-1063.6161	172.23662	-1625.5829	-1054.1617	262.22388	-1634.9194	-1352.8082	234.9957	1004.0931	-1281.3108	227.23228	1052.701	-1322.9387	194.0067	1020.8965	-1284.6499	288.20898	1052.264	814.25323	187.36357	1209.5258	892.64355	179.20219	1178.7358	844.27802	145.66992	1198.2354	860.67377	292.92783	1167.3774	1115.7828	209.88216	-1401.7214	1056.1858	194.07219	-1460.0833	1095.0319	162.37003	-1423.8595	1069.8357	238.80606	-1425.8145	-1204.5374	1685.9657	-1563.2173	-1129.1486	1688.2606	-1605.9868	-1173.1405	1724.4128	-1581.9519	-1133.7622	1581.0364	-1603.6583	-1239.7566	1699.3407	1119.4956	-1309.25	1698.6685	1071.8738	-1270.4445	1736.329	1096.9	-1245.6604	1592.912	1110.7137	988.92645	1664.2692	1162.3052	955.84607	1702.2828	1181.1086	922.14899	1662.2875	1214.9119	939.81232	1659.4152	1159.9742	999.13568	1668.506	-1579.3533	1058.8951	1670.1886	-1518.5967	1025.01	1708.0397	-1551.0776	1059.2648	1672.1549	-1585.3798	410.97073	1606.3738	-23.990108	411.4166	1608.0471	-108.08806	413.45297	1644.0493	-60.901169	444.1803	1605.1124	-61.079273	363.46375	1610.2811	-61.371422																																														-1068.8021	209.98569	-1624.9178	-1074.1094	248.61688	-1624.2374	-1321.774	231.62589	1025.1919	-1320.575	270.35583	1029.6141	847.55487	183.89645	1196.4456	850.8822	222.71175	1194.6283	1088.6637	202.68794	-1428.2784	1082.6145	240.9866	-1432.4762	-1171.8821	1686.9597	-1581.7433	-1170.5723	1647.9823	-1581.5261	-1270.9293	1699.0391	1098.1338	-1271.436	1660.0637	1099.4235	953.21637	1705.3044	1182.6033	972.71948	1732.3093	1162.3209	1026.5312	1669.2773	-1551.5005	1028.0605	1630.3096	-1551.9255	411.17035	1607.1229	-61.648006	408.76465	1568.2052	-62.435127
